<svg width="90" height="90" viewBox="0 0 90 90" fill="none" xmlns="http://www.w3.org/2000/svg">
<path d="M45 84.375C34.5571 84.375 24.5419 80.2266 17.1577 72.8423C9.77343 65.4581 5.625 55.4429 5.625 45C5.625 34.5571 9.77343 24.5419 17.1577 17.1577C24.5419 9.77343 34.5571 5.625 45 5.625C55.4429 5.625 65.4581 9.77343 72.8423 17.1577C80.2266 24.5419 84.375 34.5571 84.375 45C84.375 55.4429 80.2266 65.4581 72.8423 72.8423C65.4581 80.2266 55.4429 84.375 45 84.375ZM45 90C56.9347 90 68.3807 85.2589 76.8198 76.8198C85.2589 68.3807 90 56.9347 90 45C90 33.0653 85.2589 21.6193 76.8198 13.1802C68.3807 4.74106 56.9347 0 45 0C33.0653 0 21.6193 4.74106 13.1802 13.1802C4.74106 21.6193 0 33.0653 0 45C0 56.9347 4.74106 68.3807 13.1802 76.8198C21.6193 85.2589 33.0653 90 45 90Z" fill="#326BB4"/>
</svg>
