<svg width="35" height="35" viewBox="0 0 35 35" fill="none" xmlns="http://www.w3.org/2000/svg">
<path d="M30.7563 10.1792C29.5167 8.80834 27.4458 8.12292 24.4417 8.12292H24.0917V8.06459C24.0917 5.61459 24.0917 2.58125 18.6083 2.58125H16.3917C10.9083 2.58125 10.9083 5.62917 10.9083 8.06459V8.1375H10.5583C7.5396 8.1375 5.48335 8.82292 4.24376 10.1938C2.80001 11.7979 2.84376 13.9563 2.9896 15.4292L3.00418 15.5313L3.12747 16.8258C3.14173 16.9756 3.22224 17.1107 3.34796 17.1933C3.67782 17.4101 4.3415 17.8411 4.72501 18.0542C4.92918 18.1854 5.14793 18.3021 5.36668 18.4188C7.86043 19.7896 10.6021 20.7083 13.3875 21.1604C13.5188 22.5313 14.1167 24.1354 17.3104 24.1354C20.5042 24.1354 21.1313 22.5458 21.2333 21.1313C24.2083 20.65 27.0813 19.6146 29.6771 18.0979C29.7646 18.0542 29.8229 18.0104 29.8958 17.9667C30.5031 17.6234 31.1343 17.1965 31.7028 16.7833C31.8156 16.7014 31.8879 16.5754 31.9033 16.4369L31.9375 16.1292L32.0104 15.4438C32.025 15.3563 32.025 15.2833 32.0396 15.1813C32.1563 13.7083 32.1271 11.6958 30.7563 10.1792ZM19.0896 20.1688C19.0896 21.7146 19.0896 21.9479 17.2958 21.9479C15.5021 21.9479 15.5021 21.6708 15.5021 20.1833V18.3458H19.0896V20.1688ZM12.9938 8.12292V8.06459C12.9938 5.58542 12.9938 4.66667 16.3917 4.66667H18.6083C22.0063 4.66667 22.0063 5.6 22.0063 8.06459V8.1375H12.9938V8.12292Z" fill="#0047A6"/>
<path d="M30.8129 19.8508C31.1657 19.6811 31.571 19.9618 31.5356 20.3517L30.975 26.5271C30.6687 29.4438 29.4729 32.4187 23.0562 32.4187H11.9437C5.52706 32.4187 4.33123 29.4438 4.02498 26.5417L3.49176 20.6763C3.45672 20.2909 3.85252 20.0104 4.20451 20.1714C5.77033 20.8874 9.2855 22.4445 11.3143 22.9507C11.4791 22.9918 11.6138 23.1095 11.6819 23.2651C12.5427 25.2315 14.4833 26.2792 17.3104 26.2792C20.1095 26.2792 22.0759 25.1912 22.9388 23.2216C23.007 23.0659 23.1422 22.948 23.3072 22.9068C25.4577 22.369 29.1822 20.6354 30.8129 19.8508Z" fill="#0047A6"/>
</svg>
