<svg width="20" height="20" viewBox="0 0 20 20" fill="none" xmlns="http://www.w3.org/2000/svg">
<path d="M17.575 5.81667C16.8667 5.03334 15.6833 4.64167 13.9667 4.64167H13.7667V4.60834C13.7667 3.20834 13.7667 1.47501 10.6333 1.47501H9.36666C6.23333 1.47501 6.23333 3.21667 6.23333 4.60834V4.65001H6.03333C4.30833 4.65001 3.13333 5.04167 2.425 5.82501C1.6 6.74167 1.625 7.97501 1.70833 8.81667L1.71667 8.87501L1.77746 9.51329C1.79172 9.66306 1.87247 9.79844 1.99847 9.88066C2.20052 10.0125 2.51026 10.2113 2.7 10.3167C2.81667 10.3917 2.94167 10.4583 3.06667 10.525C4.49167 11.3083 6.05833 11.8333 7.65 12.0917C7.725 12.875 8.06667 13.7917 9.89167 13.7917C11.7167 13.7917 12.075 12.8833 12.1333 12.075C13.8333 11.8 15.475 11.2083 16.9583 10.3417C17.0083 10.3167 17.0417 10.2917 17.0833 10.2667C17.4035 10.0857 17.7354 9.864 18.04 9.64533C18.1532 9.56406 18.2254 9.43792 18.2408 9.29941L18.25 9.21667L18.2917 8.82501C18.3 8.77501 18.3 8.73334 18.3083 8.67501C18.375 7.83334 18.3583 6.68334 17.575 5.81667ZM10.9083 11.525C10.9083 12.4083 10.9083 12.5417 9.88333 12.5417C8.85833 12.5417 8.85833 12.3833 8.85833 11.5333V10.4833H10.9083V11.525ZM7.425 4.64167V4.60834C7.425 3.19167 7.425 2.66667 9.36666 2.66667H10.6333C12.575 2.66667 12.575 3.20001 12.575 4.60834V4.65001H7.425V4.64167Z" fill="#6D7C90"/>
<path d="M17.2597 11.5091C17.6138 11.3418 18.021 11.6223 17.9856 12.0123L17.7 15.1583C17.525 16.825 16.8417 18.525 13.175 18.525H6.825C3.15833 18.525 2.475 16.825 2.3 15.1667L2.02929 12.1888C1.99425 11.8034 2.39257 11.5233 2.7456 11.682C3.7048 12.1131 5.31681 12.8064 6.35279 13.0854C6.5168 13.1296 6.64995 13.2476 6.72435 13.4003C7.23856 14.4556 8.32774 15.0167 9.89167 15.0167C11.4402 15.0167 12.5427 14.434 13.0588 13.3755C13.1333 13.2227 13.2664 13.1048 13.4305 13.0604C14.5323 12.7619 16.2536 11.9846 17.2597 11.5091Z" fill="#6D7C90"/>
</svg>
