<svg width="74" height="74" viewBox="0 0 74 74" fill="none" xmlns="http://www.w3.org/2000/svg">
<g clip-path="url(#clip0_53_232)">
<path d="M18.5 2.3125C18.5 1.69919 18.2564 1.11099 17.8227 0.677316C17.389 0.243638 16.8008 0 16.1875 0C15.5742 0 14.986 0.243638 14.5523 0.677316C14.1186 1.11099 13.875 1.69919 13.875 2.3125V4.625H9.25C6.79675 4.625 4.44397 5.59955 2.70926 7.33426C0.974551 9.06897 0 11.4217 0 13.875L0 18.5H74V13.875C74 11.4217 73.0254 9.06897 71.2907 7.33426C69.556 5.59955 67.2033 4.625 64.75 4.625H60.125V2.3125C60.125 1.69919 59.8814 1.11099 59.4477 0.677316C59.014 0.243638 58.4258 0 57.8125 0C57.1992 0 56.611 0.243638 56.1773 0.677316C55.7436 1.11099 55.5 1.69919 55.5 2.3125V4.625H18.5V2.3125ZM43.4843 47.3877C46.3749 47.3877 48.9603 45.1492 48.9603 41.9302C48.9603 38.0822 46.5229 36.2415 43.5952 36.2415C40.885 36.2415 38.1933 38.0314 38.1933 41.8377C38.1933 45.6164 40.7046 47.3877 43.4843 47.3877Z" fill="white"/>
<path d="M74 64.75V23.125H0V64.75C0 67.2033 0.974551 69.556 2.70926 71.2907C4.44397 73.0254 6.79675 74 9.25 74H64.75C67.2033 74 69.556 73.0254 71.2907 71.2907C73.0254 69.556 74 67.2033 74 64.75ZM43.179 59.1538C38.0453 59.1538 35.52 55.6064 35.3026 52.6464H38.4615C38.6604 54.3576 40.2514 56.4389 43.3224 56.4389C47.2259 56.4389 49.3395 52.5169 49.358 46.4304H49.2331C48.5255 48.3451 46.287 50.0841 42.8368 50.0841C38.8963 50.0841 35.0853 47.2629 35.0853 41.8979C35.0853 36.6392 39.1136 33.5312 43.3964 33.5312C48.8169 33.5312 52.429 36.926 52.429 45.8708C52.429 54.2189 48.9973 59.1491 43.179 59.1491V59.1538ZM29.8127 34.0169V58.6774H26.6863V37.3654H26.6307C25.2895 38.0869 22.5469 39.7704 20.8125 40.959V37.74C22.7614 36.38 24.7891 35.1368 26.8851 34.0169H29.8127Z" fill="white"/>
</g>
<defs>
<clipPath id="clip0_53_232">
<rect width="74" height="74" fill="white"/>
</clipPath>
</defs>
</svg>
