<svg width="27" height="27" viewBox="0 0 27 27" fill="none" xmlns="http://www.w3.org/2000/svg">
<g clip-path="url(#clip0_58_1483)">
<path d="M6.75 0.84375C6.75 0.619974 6.66111 0.405362 6.50287 0.247129C6.34464 0.0888949 6.13003 0 5.90625 0C5.68247 0 5.46786 0.0888949 5.30963 0.247129C5.15139 0.405362 5.0625 0.619974 5.0625 0.84375V1.6875H3.375C2.47989 1.6875 1.62145 2.04308 0.988515 2.67601C0.355579 3.30895 0 4.16739 0 5.0625L0 6.75H27V5.0625C27 4.16739 26.6444 3.30895 26.0115 2.67601C25.3785 2.04308 24.5201 1.6875 23.625 1.6875H21.9375V0.84375C21.9375 0.619974 21.8486 0.405362 21.6904 0.247129C21.5321 0.0888949 21.3175 0 21.0938 0C20.87 0 20.6554 0.0888949 20.4971 0.247129C20.3389 0.405362 20.25 0.619974 20.25 0.84375V1.6875H6.75V0.84375ZM15.8659 17.2901C16.9206 17.2901 17.8639 16.4734 17.8639 15.2989C17.8639 13.8949 16.9746 13.2233 15.9064 13.2233C14.9175 13.2233 13.9354 13.8763 13.9354 15.2651C13.9354 16.6438 14.8517 17.2901 15.8659 17.2901Z" fill="#047DF6"/>
<path d="M27 23.625V8.4375H0V23.625C0 24.5201 0.355579 25.3785 0.988515 26.0115C1.62145 26.6444 2.47989 27 3.375 27H23.625C24.5201 27 25.3785 26.6444 26.0115 26.0115C26.6444 25.3785 27 24.5201 27 23.625ZM15.7545 21.5831C13.8814 21.5831 12.96 20.2888 12.8807 19.2088H14.0332C14.1058 19.8332 14.6863 20.5926 15.8068 20.5926C17.2311 20.5926 18.0023 19.1616 18.009 16.9408H17.9634C17.7053 17.6394 16.8885 18.2739 15.6296 18.2739C14.1919 18.2739 12.8014 17.2446 12.8014 15.2871C12.8014 13.3684 14.2712 12.2344 15.8338 12.2344C17.8116 12.2344 19.1295 13.473 19.1295 16.7366C19.1295 19.7826 17.8774 21.5814 15.7545 21.5814V21.5831ZM10.8776 12.4116V21.4093H9.73687V13.6333H9.71663C9.22725 13.8966 8.22656 14.5108 7.59375 14.9445V13.77C8.30482 13.2738 9.04468 12.8202 9.80944 12.4116H10.8776Z" fill="#047DF6"/>
</g>
<defs>
<clipPath id="clip0_58_1483">
<rect width="27" height="27" fill="white"/>
</clipPath>
</defs>
</svg>
