<svg width="80" height="73" viewBox="0 0 80 73" fill="none" xmlns="http://www.w3.org/2000/svg">
<g clip-path="url(#clip0_50_329)">
<path d="M30 13.6875C30 17.3176 28.4196 20.7991 25.6066 23.366C22.7936 25.9329 18.9782 27.375 15 27.375C11.0218 27.375 7.20644 25.9329 4.3934 23.366C1.58035 20.7991 0 17.3176 0 13.6875C0 10.0573 1.58035 6.57588 4.3934 4.00898C7.20644 1.44207 11.0218 0 15 0C18.9782 0 22.7936 1.44207 25.6066 4.00898C28.4196 6.57588 30 10.0573 30 13.6875ZM5 13.6875C5 16.1076 6.05357 18.4286 7.92893 20.1399C9.8043 21.8511 12.3478 22.8125 15 22.8125C17.6522 22.8125 20.1957 21.8511 22.0711 20.1399C23.9464 18.4286 25 16.1076 25 13.6875C25 11.2674 23.9464 8.94642 22.0711 7.23515C20.1957 5.52388 17.6522 4.5625 15 4.5625C12.3478 4.5625 9.8043 5.52388 7.92893 7.23515C6.05357 8.94642 5 11.2674 5 13.6875Z" fill="#326BB4"/>
<path d="M45 27.375H47.5C49.9255 27.3747 52.2684 28.1789 54.0924 29.6377C55.9164 31.0965 57.0973 33.1105 57.415 35.3046L72.965 28.9992C73.7261 28.6898 74.56 28.5588 75.3907 28.6182C76.2214 28.6776 77.0227 28.9255 77.7217 29.3394C78.4207 29.7533 78.9953 30.3201 79.3932 30.9882C79.791 31.6562 79.9996 32.4045 80 33.1648V67.2102C79.9993 67.97 79.7906 68.7175 79.393 69.3851C78.9954 70.0526 78.4214 70.6189 77.7231 71.0327C77.0247 71.4465 76.2243 71.6946 75.3942 71.7545C74.5642 71.8144 73.7309 71.6842 72.97 71.3758L57.415 65.0704C57.0973 67.2645 55.9164 69.2785 54.0924 70.7373C52.2684 72.1961 49.9255 73.0003 47.5 73H10C7.34784 73 4.8043 72.0386 2.92893 70.3273C1.05357 68.6161 0 66.2951 0 63.875V36.5C0 34.0799 1.05357 31.7589 2.92893 30.0477C4.8043 28.3364 7.34784 27.375 10 27.375H45ZM75 67.2056V33.1694L57.5 40.2641V60.1109L75 67.2056ZM5 36.5V63.875C5 65.085 5.52678 66.2455 6.46447 67.1012C7.40215 67.9568 8.67392 68.4375 10 68.4375H47.5C48.8261 68.4375 50.0979 67.9568 51.0355 67.1012C51.9732 66.2455 52.5 65.085 52.5 63.875V36.5C52.5 35.2899 51.9732 34.1295 51.0355 33.2738C50.0979 32.4182 48.8261 31.9375 47.5 31.9375H10C8.67392 31.9375 7.40215 32.4182 6.46447 33.2738C5.52678 34.1295 5 35.2899 5 36.5Z" fill="#326BB4"/>
<path d="M45 27.375C48.9782 27.375 52.7936 25.9329 55.6066 23.366C58.4196 20.7991 60 17.3176 60 13.6875C60 10.0573 58.4196 6.57588 55.6066 4.00898C52.7936 1.44207 48.9782 0 45 0C41.0218 0 37.2064 1.44207 34.3934 4.00898C31.5804 6.57588 30 10.0573 30 13.6875C30 17.3176 31.5804 20.7991 34.3934 23.366C37.2064 25.9329 41.0218 27.375 45 27.375ZM35 13.6875C35 11.2674 36.0536 8.94642 37.9289 7.23515C39.8043 5.52388 42.3478 4.5625 45 4.5625C47.6522 4.5625 50.1957 5.52388 52.0711 7.23515C53.9464 8.94642 55 11.2674 55 13.6875C55 16.1076 53.9464 18.4286 52.0711 20.1399C50.1957 21.8511 47.6522 22.8125 45 22.8125C42.3478 22.8125 39.8043 21.8511 37.9289 20.1399C36.0536 18.4286 35 16.1076 35 13.6875Z" fill="#326BB4"/>
<path d="M30.303 37.7373V63.7203M17.5758 50.7288H43.0303" stroke="#007AFF" stroke-width="2" stroke-linecap="round" stroke-linejoin="round"/>
</g>
<defs>
<clipPath id="clip0_50_329">
<rect width="80" height="73" fill="white"/>
</clipPath>
</defs>
</svg>
