<svg width="30" height="30" viewBox="0 0 30 30" fill="none" xmlns="http://www.w3.org/2000/svg">
<path d="M7.5 2.8125H5.625C4.63044 2.8125 3.67661 3.20759 2.97335 3.91085C2.27009 4.61411 1.875 5.56794 1.875 6.5625V26.25C1.875 27.2446 2.27009 28.1984 2.97335 28.9016C3.67661 29.6049 4.63044 30 5.625 30H24.375C25.3696 30 26.3234 29.6049 27.0266 28.9016C27.7299 28.1984 28.125 27.2446 28.125 26.25V6.5625C28.125 5.56794 27.7299 4.61411 27.0266 3.91085C26.3234 3.20759 25.3696 2.8125 24.375 2.8125H22.5V4.6875H24.375C24.8723 4.6875 25.3492 4.88504 25.7008 5.23667C26.0525 5.58831 26.25 6.06522 26.25 6.5625V26.25C26.25 26.7473 26.0525 27.2242 25.7008 27.5758C25.3492 27.9275 24.8723 28.125 24.375 28.125H5.625C5.12772 28.125 4.65081 27.9275 4.29917 27.5758C3.94754 27.2242 3.75 26.7473 3.75 26.25V6.5625C3.75 6.06522 3.94754 5.58831 4.29917 5.23667C4.65081 4.88504 5.12772 4.6875 5.625 4.6875H7.5V2.8125Z" fill="white"/>
<path d="M17.8125 1.875C18.0611 1.875 18.2996 1.97377 18.4754 2.14959C18.6512 2.3254 18.75 2.56386 18.75 2.8125V4.6875C18.75 4.93614 18.6512 5.1746 18.4754 5.35041C18.2996 5.52623 18.0611 5.625 17.8125 5.625H12.1875C11.9389 5.625 11.7004 5.52623 11.5246 5.35041C11.3488 5.1746 11.25 4.93614 11.25 4.6875V2.8125C11.25 2.56386 11.3488 2.3254 11.5246 2.14959C11.7004 1.97377 11.9389 1.875 12.1875 1.875H17.8125ZM12.1875 0C11.4416 0 10.7262 0.296316 10.1988 0.823762C9.67132 1.35121 9.375 2.06658 9.375 2.8125V4.6875C9.375 5.43342 9.67132 6.14879 10.1988 6.67624C10.7262 7.20368 11.4416 7.5 12.1875 7.5H17.8125C18.5584 7.5 19.2738 7.20368 19.8012 6.67624C20.3287 6.14879 20.625 5.43342 20.625 4.6875V2.8125C20.625 2.06658 20.3287 1.35121 19.8012 0.823762C19.2738 0.296316 18.5584 0 17.8125 0L12.1875 0Z" fill="white"/>
</svg>
