<svg width="65" height="65" viewBox="0 0 65 65" fill="none" xmlns="http://www.w3.org/2000/svg">
<path d="M65 32.5C65 41.1195 61.5759 49.386 55.481 55.481C49.386 61.5759 41.1195 65 32.5 65C23.8805 65 15.614 61.5759 9.51903 55.481C3.4241 49.386 0 41.1195 0 32.5C0 23.8805 3.4241 15.614 9.51903 9.51903C15.614 3.4241 23.8805 0 32.5 0C41.1195 0 49.386 3.4241 55.481 9.51903C61.5759 15.614 65 23.8805 65 32.5ZM34.5312 18.2812C34.5312 17.7425 34.3172 17.2259 33.9363 16.8449C33.5554 16.464 33.0387 16.25 32.5 16.25C31.9613 16.25 31.4446 16.464 31.0637 16.8449C30.6828 17.2259 30.4688 17.7425 30.4688 18.2812V30.4688H18.2812C17.7425 30.4688 17.2259 30.6828 16.8449 31.0637C16.464 31.4446 16.25 31.9613 16.25 32.5C16.25 33.0387 16.464 33.5554 16.8449 33.9363C17.2259 34.3172 17.7425 34.5312 18.2812 34.5312H30.4688V46.7188C30.4688 47.2575 30.6828 47.7741 31.0637 48.1551C31.4446 48.536 31.9613 48.75 32.5 48.75C33.0387 48.75 33.5554 48.536 33.9363 48.1551C34.3172 47.7741 34.5312 47.2575 34.5312 46.7188V34.5312H46.7188C47.2575 34.5312 47.7741 34.3172 48.1551 33.9363C48.536 33.5554 48.75 33.0387 48.75 32.5C48.75 31.9613 48.536 31.4446 48.1551 31.0637C47.7741 30.6828 47.2575 30.4688 46.7188 30.4688H34.5312V18.2812Z" fill="white"/>
</svg>
