<svg width="150" height="150" viewBox="0 0 150 150" fill="none" xmlns="http://www.w3.org/2000/svg">
<rect width="150" height="150" rx="25" fill="#FFF3E6"/>
<g clip-path="url(#clip0_50_333)">
<path d="M70 45.6875C70 49.3176 68.4196 52.7991 65.6066 55.366C62.7936 57.9329 58.9782 59.375 55 59.375C51.0218 59.375 47.2064 57.9329 44.3934 55.366C41.5804 52.7991 40 49.3176 40 45.6875C40 42.0573 41.5804 38.5759 44.3934 36.009C47.2064 33.4421 51.0218 32 55 32C58.9782 32 62.7936 33.4421 65.6066 36.009C68.4196 38.5759 70 42.0573 70 45.6875ZM45 45.6875C45 48.1076 46.0536 50.4286 47.9289 52.1399C49.8043 53.8511 52.3478 54.8125 55 54.8125C57.6522 54.8125 60.1957 53.8511 62.0711 52.1399C63.9464 50.4286 65 48.1076 65 45.6875C65 43.2674 63.9464 40.9464 62.0711 39.2352C60.1957 37.5239 57.6522 36.5625 55 36.5625C52.3478 36.5625 49.8043 37.5239 47.9289 39.2352C46.0536 40.9464 45 43.2674 45 45.6875Z" fill="#326BB4"/>
<path d="M85 59.375H87.5C89.9255 59.3747 92.2684 60.1789 94.0924 61.6377C95.9164 63.0965 97.0973 65.1105 97.415 67.3046L112.965 60.9992C113.726 60.6898 114.56 60.5588 115.391 60.6182C116.221 60.6776 117.023 60.9255 117.722 61.3394C118.421 61.7533 118.995 62.3201 119.393 62.9882C119.791 63.6562 120 64.4045 120 65.1648V99.2102C119.999 99.97 119.791 100.718 119.393 101.385C118.995 102.053 118.421 102.619 117.723 103.033C117.025 103.447 116.224 103.695 115.394 103.755C114.564 103.814 113.731 103.684 112.97 103.376L97.415 97.0704C97.0973 99.2645 95.9164 101.279 94.0924 102.737C92.2684 104.196 89.9255 105 87.5 105H50C47.3478 105 44.8043 104.039 42.9289 102.327C41.0536 100.616 40 98.2951 40 95.875V68.5C40 66.0799 41.0536 63.7589 42.9289 62.0477C44.8043 60.3364 47.3478 59.375 50 59.375H85ZM115 99.2056V65.1694L97.5 72.2641V92.1109L115 99.2056ZM45 68.5V95.875C45 97.085 45.5268 98.2455 46.4645 99.1012C47.4021 99.9568 48.6739 100.438 50 100.438H87.5C88.8261 100.438 90.0979 99.9568 91.0355 99.1012C91.9732 98.2455 92.5 97.085 92.5 95.875V68.5C92.5 67.2899 91.9732 66.1295 91.0355 65.2738C90.0979 64.4182 88.8261 63.9375 87.5 63.9375H50C48.6739 63.9375 47.4021 64.4182 46.4645 65.2738C45.5268 66.1295 45 67.2899 45 68.5Z" fill="#326BB4"/>
<path d="M85 59.375C88.9782 59.375 92.7936 57.9329 95.6066 55.366C98.4196 52.7991 100 49.3176 100 45.6875C100 42.0573 98.4196 38.5759 95.6066 36.009C92.7936 33.4421 88.9782 32 85 32C81.0218 32 77.2064 33.4421 74.3934 36.009C71.5804 38.5759 70 42.0573 70 45.6875C70 49.3176 71.5804 52.7991 74.3934 55.366C77.2064 57.9329 81.0218 59.375 85 59.375ZM75 45.6875C75 43.2674 76.0536 40.9464 77.9289 39.2352C79.8043 37.5239 82.3478 36.5625 85 36.5625C87.6522 36.5625 90.1957 37.5239 92.0711 39.2352C93.9464 40.9464 95 43.2674 95 45.6875C95 48.1076 93.9464 50.4286 92.0711 52.1399C90.1957 53.8511 87.6522 54.8125 85 54.8125C82.3478 54.8125 79.8043 53.8511 77.9289 52.1399C76.0536 50.4286 75 48.1076 75 45.6875Z" fill="#326BB4"/>
<path d="M70.303 69.7373V95.7203M57.5758 82.7288H83.0303" stroke="#007AFF" stroke-width="2" stroke-linecap="round" stroke-linejoin="round"/>
</g>
<defs>
<clipPath id="clip0_50_333">
<rect width="80" height="73" fill="white" transform="translate(40 32)"/>
</clipPath>
</defs>
</svg>
