<svg width="41" height="18" viewBox="0 0 41 18" fill="none" xmlns="http://www.w3.org/2000/svg">
<path d="M4.57367 16.3951L1.40892 12.7284C1.11393 12.3894 0.8833 11.9827 0.73181 11.5345C0.580317 11.0862 0.5113 10.6062 0.529175 10.1253C0.54705 9.64433 0.651424 9.17301 0.835614 8.7415C1.01981 8.31 1.27975 7.92782 1.5988 7.61944C5.19768 4.2671 9.42508 1.93956 13.9413 0.823838C18.1098 -0.252745 22.4318 -0.252745 26.6003 0.82384C31.1352 1.94679 35.3781 4.29161 38.9851 7.66834C39.3032 7.97578 39.5625 8.35659 39.7466 8.78653C39.9307 9.21646 40.0355 9.6861 40.0544 10.1655C40.0732 10.645 40.0057 11.1237 39.8561 11.5712C39.7065 12.0188 39.4781 12.4254 39.1855 12.765L36.0208 16.4317C35.5138 17.0307 34.8362 17.3957 34.1142 17.4587C33.3922 17.5217 32.6751 17.2783 32.0965 16.774C30.9501 15.7553 29.7079 14.8902 28.3937 14.1951C27.8742 13.922 27.4331 13.4822 27.1228 12.9276C26.8124 12.3731 26.6457 11.7271 26.6425 11.0661V7.96167C22.4998 6.64167 18.1263 6.64167 13.9835 7.96167V11.0661C13.9803 11.7271 13.8137 12.3731 13.5033 12.9276C13.193 13.4822 12.7519 13.922 12.2324 14.195C10.9181 14.8902 9.67597 15.7553 8.52961 16.774C7.94487 17.2839 7.21876 17.5271 6.48937 17.4572C5.75998 17.3874 5.07819 17.0093 4.57367 16.3951Z" fill="white"/>
</svg>
