<svg width="100" height="100" viewBox="0 0 100 100" fill="none" xmlns="http://www.w3.org/2000/svg">
<g clip-path="url(#clip0_71_934)">
<path d="M53.125 62.5C51.4 62.5 50 59.7 50 56.25C50 52.8 51.4 50 53.125 50C54.85 50 56.25 52.8 56.25 56.25C56.25 59.7 54.85 62.5 53.125 62.5Z" fill="white"/>
<path d="M67.675 0.762638C68.013 1.05641 68.2839 1.41939 68.4694 1.827C68.6549 2.23461 68.7506 2.67732 68.75 3.12514V6.25014H71.875C74.3614 6.25014 76.746 7.23786 78.5041 8.99601C80.2623 10.7542 81.25 13.1387 81.25 15.6251V93.7501H90.625C91.4538 93.7501 92.2487 94.0794 92.8347 94.6654C93.4208 95.2515 93.75 96.0463 93.75 96.8751C93.75 97.7039 93.4208 98.4988 92.8347 99.0848C92.2487 99.6709 91.4538 100 90.625 100H9.375C8.5462 100 7.75134 99.6709 7.16529 99.0848C6.57924 98.4988 6.25 97.7039 6.25 96.8751C6.25 96.0463 6.57924 95.2515 7.16529 94.6654C7.75134 94.0794 8.5462 93.7501 9.375 93.7501H18.75V9.37514C18.7501 8.62221 19.0221 7.89464 19.5158 7.32623C20.0096 6.75783 20.692 6.3868 21.4375 6.28139L65.1875 0.0313884C65.6303 -0.0318494 66.0815 0.000708993 66.5107 0.126863C66.9398 0.253017 67.3369 0.469827 67.675 0.762638ZM71.875 12.5001H68.75V93.7501H75V15.6251C75 14.7963 74.6708 14.0015 74.0847 13.4154C73.4987 12.8294 72.7038 12.5001 71.875 12.5001ZM25 12.0876V93.7501H62.5V6.73139L25 12.0876Z" fill="white"/>
</g>
<defs>
<clipPath id="clip0_71_934">
<rect width="100" height="100" fill="white"/>
</clipPath>
</defs>
</svg>
