<svg width="69" height="69" viewBox="0 0 69 69" fill="none" xmlns="http://www.w3.org/2000/svg">
<path d="M68.2344 0.52508C68.5935 0.831603 68.8438 1.24608 68.9479 1.70658C69.052 2.16709 69.0043 2.64892 68.8119 3.08008C62.1182 18.0863 48.0613 38.8238 37.7713 49.6301C34.8837 52.6489 31.3276 54.9476 27.3894 56.3413C27.3107 57.3344 27.1269 58.6951 26.6894 60.1388C25.8101 63.0219 23.7713 66.6094 19.2169 67.7513C14.8065 68.8036 10.235 68.9996 5.75068 68.3288C4.91793 68.1915 4.0962 67.9941 3.29194 67.7382C2.55003 67.5104 1.85817 67.1437 1.25319 66.6576C0.852951 66.3207 0.545685 65.8869 0.360685 65.3976C0.12763 64.7714 0.133862 64.0813 0.378186 63.4594C0.79381 62.3876 1.76069 61.797 2.39506 61.4819C4.11881 60.6201 5.12944 59.5001 6.18819 57.8682C6.60381 57.2382 6.99318 56.5688 7.44381 55.8032L7.95568 54.937C8.61631 53.8213 9.38193 52.5744 10.3444 51.2269C12.6544 47.9938 15.5988 47.1801 17.9832 47.3069C18.5374 47.3419 19.0448 47.4119 19.5057 47.5169C19.7769 46.7645 20.1269 45.8545 20.5469 44.8569C21.6888 42.1488 23.4257 38.6488 25.7401 35.8051C35.2601 24.1238 52.7776 8.65383 65.6269 0.35008C66.0225 0.094753 66.4899 -0.0261282 66.9597 0.00539988C67.4295 0.036928 67.8765 0.219183 68.2344 0.52508Z" fill="white"/>
</svg>
