<svg width="43" height="48" viewBox="0 0 43 48" fill="none" xmlns="http://www.w3.org/2000/svg">
<path d="M21.6653 47.5627C33.2873 47.5627 42.7087 37.1112 42.7087 24.2186C42.7087 11.3261 33.2873 0.874634 21.6653 0.874634C10.0434 0.874634 0.621948 11.3261 0.621948 24.2186C0.621948 37.1112 10.0434 47.5627 21.6653 47.5627Z" fill="#FFDD67"/>
<path d="M15.0717 13.4804C12.827 15.5814 9.81082 16.5151 6.86475 15.8926C6.44388 15.8148 6.09316 17.4489 6.58417 17.6045C9.95111 18.3048 13.4583 17.2154 16.0537 14.8032C16.4044 14.4142 15.3522 13.1691 15.0717 13.4804ZM36.4658 15.8148C33.5197 16.3595 30.5035 15.5035 28.2588 13.4026C27.9783 13.0913 26.856 14.3363 27.2768 14.7254C29.8722 17.2154 33.3794 18.227 36.7463 17.5267C37.2374 17.3711 36.8866 15.737 36.4658 15.8148Z" fill="#917524"/>
<path d="M31.9064 32.3112C31.5557 31.8443 30.8542 31.6887 30.3632 32.0778L27.4172 34.2565C26.9261 34.6456 26.1546 34.5678 25.7337 34.1787L22.507 31.144C22.0862 30.7549 21.3847 30.7549 20.8937 31.144L17.6671 34.1787C17.2462 34.5678 16.4746 34.6456 15.9836 34.2565L12.9674 32.0778C12.4764 31.6887 11.7749 31.8443 11.4242 32.3112L8.33783 36.3575C7.98711 36.8244 8.05725 36.98 8.54826 36.6688L11.2138 35.0347C11.7048 34.7234 12.4764 34.8012 12.8972 35.2681L16.1239 38.7697C16.5447 39.2366 17.2462 39.2366 17.7372 38.8475L20.8937 36.2019C21.3847 35.8128 22.0862 35.8128 22.5772 36.2019L25.6635 38.8475C26.1546 39.2366 26.856 39.1588 27.2769 38.7697L30.5035 35.2681C30.9244 34.8012 31.696 34.7234 32.187 35.0347L34.8525 36.6688C35.3435 36.98 35.4838 36.8244 35.0629 36.3575L31.9064 32.3112ZM35.4838 21.1839C35.9046 21.4173 35.6942 21.962 35.3435 22.0398C33.4496 22.3511 31.4855 22.7402 29.5215 23.9074C32.3273 24.4521 34.5719 26.0083 35.8345 27.6424C36.1151 28.0315 35.7644 28.4984 35.4838 28.4205C32.1168 27.0977 28.6798 26.3196 24.4009 26.8643C24.0502 26.8643 23.7696 26.7086 23.8398 26.3196C24.9621 20.6392 31.4855 18.5382 35.4838 21.1839ZM7.84682 21.1839C7.42595 21.4173 7.63639 21.962 7.98711 22.0398C9.88101 22.3511 11.8451 22.7402 13.8091 23.9074C11.0033 24.4521 8.7587 26.0083 7.4961 27.6424C7.21552 28.0315 7.56624 28.4984 7.84682 28.4205C11.2138 27.0977 14.6508 26.3196 18.9297 26.8643C19.2804 26.8643 19.561 26.7086 19.4908 26.3196C18.3685 20.6392 11.8451 18.5382 7.84682 21.1839Z" fill="#664E27"/>
</svg>
