<svg width="30" height="30" viewBox="0 0 30 30" fill="none" xmlns="http://www.w3.org/2000/svg">
<path d="M23.6599 4.29458C23.1997 4.29458 22.763 4.39639 22.3701 4.57744C22.1036 3.14128 20.8423 2.05008 19.33 2.05008C18.855 2.05008 18.4048 2.15796 18.0022 2.35021C17.6687 1.00237 16.4495 0 15.0001 0C13.5507 0 12.3316 1.00243 11.9981 2.35021C11.5955 2.15802 11.1453 2.05008 10.6702 2.05008C8.96488 2.05008 7.57746 3.43751 7.57746 5.14287V12.703C7.19834 12.5368 6.78007 12.444 6.34034 12.444C4.63498 12.444 3.24756 13.8314 3.24756 15.5368V21.8969C3.24756 26.3649 6.88257 30 11.3507 30H18.6496C23.1176 30 26.7527 26.3649 26.7527 21.8969V7.38736C26.7527 5.68194 25.3653 4.29458 23.6599 4.29458ZM24.897 21.8969C24.897 25.3417 22.0944 28.1443 18.6496 28.1443H11.3507C7.90585 28.1443 5.10323 25.3417 5.10323 21.8969V15.5368C5.10323 14.8546 5.6582 14.2997 6.34034 14.2997C7.02249 14.2997 7.57746 14.8546 7.57746 15.5368V20.4852H9.43313V5.14287C9.43313 4.46072 9.9881 3.90575 10.6702 3.90575C11.3524 3.90575 11.9074 4.46072 11.9074 5.14287V14.9182H13.763V3.09278C13.763 2.41064 14.318 1.85567 15.0001 1.85567C15.6823 1.85567 16.2373 2.41064 16.2373 3.09278V14.9182H18.0929V5.14287C18.0929 4.46072 18.6479 3.90575 19.33 3.90575C20.0122 3.90575 20.5671 4.46072 20.5671 5.14287V14.9182H22.4228V7.3873C22.4228 6.70515 22.9778 6.15019 23.6599 6.15019C24.3421 6.15019 24.897 6.70515 24.897 7.3873V21.8969Z" fill="white"/>
</svg>
