<svg width="43" height="47" viewBox="0 0 43 47" fill="none" xmlns="http://www.w3.org/2000/svg">
<path d="M42.7987 23.5278C42.7987 36.4449 33.3993 46.8719 21.7553 46.8719C10.1113 46.8719 0.711914 36.4449 0.711914 23.5278C0.711914 10.6108 10.1113 0.183838 21.7553 0.183838C33.3993 0.183838 42.7987 10.6108 42.7987 23.5278Z" fill="#FFDD67"/>
<path d="M33.6798 28.1968C33.6798 27.5743 33.3291 26.7962 32.4172 26.5627C29.9622 26.018 26.3848 25.5511 21.7553 25.5511C17.1257 25.5511 13.5484 26.0958 11.0933 26.5627C10.1814 26.7962 9.83069 27.5743 9.83069 28.1968C9.83069 33.8772 13.7588 39.5576 21.7553 39.5576C29.7517 39.5576 33.6798 33.8772 33.6798 28.1968Z" fill="#664E27"/>
<path d="M19.3002 19.5594C17.9675 15.5909 16.0034 13.5677 14.0394 13.5677C12.0753 13.5677 10.1113 15.5909 8.77855 19.5594C8.63826 19.9484 9.33971 20.6488 9.69043 20.2597C10.953 18.7812 12.4962 18.1587 14.0394 18.1587C15.5826 18.1587 17.1258 18.7812 18.3884 20.2597C18.8092 20.6488 19.4405 19.9484 19.3002 19.5594Z" fill="#664E27"/>
<path d="M34.6618 19.5594C33.3291 15.5909 31.365 13.5677 29.401 13.5677C27.4369 13.5677 25.4729 15.5909 24.1401 19.5594C23.9998 19.9484 24.7013 20.6488 25.052 20.2597C26.3146 18.7812 27.8578 18.1587 29.401 18.1587C31.0143 18.1587 32.4873 18.7812 33.7499 20.2597C34.1006 20.6488 34.8021 19.9484 34.6618 19.5594Z" fill="#664E27"/>
<path d="M30.6637 28.43C29.1205 28.1187 25.8939 27.6519 21.7553 27.6519C17.6168 27.6519 14.3902 28.1187 12.847 28.43C11.9351 28.5856 11.865 28.9747 11.9351 29.5972C12.0052 29.9084 12.0052 30.3753 12.1455 30.8422C12.2157 31.3091 12.356 31.5425 13.0574 31.4647C14.3902 31.3091 29.1907 31.3091 30.5234 31.4647C31.2249 31.5425 31.295 31.3091 31.4353 30.8422C31.5054 30.3753 31.5756 29.9863 31.6457 29.5972C31.6457 28.9747 31.5756 28.5856 30.6637 28.43Z" fill="white"/>
<path d="M42.7987 23.5278C42.7987 36.4449 33.3993 46.8719 21.7553 46.8719C10.1113 46.8719 0.711914 36.4449 0.711914 23.5278C0.711914 10.6108 10.1113 0.183838 21.7553 0.183838C33.3993 0.183838 42.7987 10.6108 42.7987 23.5278Z" fill="#FFDD67"/>
<path d="M33.6798 28.1968C33.6798 27.5743 33.3291 26.7962 32.4172 26.5627C29.9622 26.018 26.3848 25.5511 21.7553 25.5511C17.1257 25.5511 13.5484 26.0958 11.0933 26.5627C10.1814 26.7962 9.83069 27.5743 9.83069 28.1968C9.83069 33.8772 13.7588 39.5576 21.7553 39.5576C29.7517 39.5576 33.6798 33.8772 33.6798 28.1968Z" fill="#664E27"/>
<path d="M19.3002 19.5594C17.9675 15.5909 16.0034 13.5677 14.0394 13.5677C12.0753 13.5677 10.1113 15.5909 8.77855 19.5594C8.63826 19.9484 9.33971 20.6488 9.69043 20.2597C10.953 18.7812 12.4962 18.1587 14.0394 18.1587C15.5826 18.1587 17.1258 18.7812 18.3884 20.2597C18.8092 20.6488 19.4405 19.9484 19.3002 19.5594Z" fill="#664E27"/>
<path d="M34.6618 19.5594C33.3291 15.5909 31.365 13.5677 29.401 13.5677C27.4369 13.5677 25.4729 15.5909 24.1401 19.5594C23.9998 19.9484 24.7013 20.6488 25.052 20.2597C26.3146 18.7812 27.8578 18.1587 29.401 18.1587C31.0143 18.1587 32.4873 18.7812 33.7499 20.2597C34.1006 20.6488 34.8021 19.9484 34.6618 19.5594Z" fill="#664E27"/>
<path d="M30.6637 28.43C29.1205 28.1187 25.8939 27.6519 21.7553 27.6519C17.6168 27.6519 14.3902 28.1187 12.847 28.43C11.9351 28.5856 11.865 28.9747 11.9351 29.5972C12.0052 29.9084 12.0052 30.3753 12.1455 30.8422C12.2157 31.3091 12.356 31.4647 13.0574 31.4647H30.5234C31.2249 31.4647 31.295 31.3091 31.4353 30.8422C31.5054 30.3753 31.5756 29.9863 31.6457 29.5972C31.6457 28.9747 31.5756 28.5856 30.6637 28.43Z" fill="white"/>
</svg>
