<svg width="24" height="24" viewBox="0 0 24 24" fill="none" xmlns="http://www.w3.org/2000/svg">
<path d="M9.5 21.2513V15.9938C9.5 15.6263 9.875 15.2513 10.25 15.2513H13.25C13.625 15.2513 14 15.6263 14 16.0013V21.2513C14 21.4503 14.079 21.641 14.2197 21.7817C14.3603 21.9223 14.5511 22.0013 14.75 22.0013H20.75C20.9489 22.0013 21.1397 21.9223 21.2803 21.7817C21.421 21.641 21.5 21.4503 21.5 21.2513V10.7513C21.5002 10.6528 21.4809 10.5552 21.4433 10.464C21.4058 10.3729 21.3506 10.2901 21.281 10.2203L19.25 8.19084V3.25134C19.25 3.05243 19.171 2.86166 19.0303 2.72101C18.8897 2.58036 18.6989 2.50134 18.5 2.50134H17C16.8011 2.50134 16.6103 2.58036 16.4697 2.72101C16.329 2.86166 16.25 3.05243 16.25 3.25134V5.19084L12.281 1.22034C12.2113 1.1505 12.1286 1.09508 12.0375 1.05727C11.9463 1.01946 11.8487 1 11.75 1C11.6514 1 11.5537 1.01946 11.4626 1.05727C11.3714 1.09508 11.2887 1.1505 11.219 1.22034L2.219 10.2203C2.1494 10.2901 2.09423 10.3729 2.05665 10.464C2.01908 10.5552 1.99983 10.6528 2 10.7513V21.2513C2 21.4503 2.07902 21.641 2.21967 21.7817C2.36032 21.9223 2.55109 22.0013 2.75 22.0013H8.75C8.94891 22.0013 9.13968 21.9223 9.28033 21.7817C9.42098 21.641 9.5 21.4503 9.5 21.2513Z" fill="white"/>
</svg>
