<svg width="74" height="74" viewBox="0 0 74 74" fill="none" xmlns="http://www.w3.org/2000/svg">
<path d="M30.0625 67.0625V50.8519C30.0625 49.7187 31.2188 48.5625 32.375 48.5625H41.625C42.7813 48.5625 43.9375 49.7187 43.9375 50.875V67.0625C43.9375 67.6758 44.1811 68.264 44.6148 68.6977C45.0485 69.1313 45.6367 69.375 46.25 69.375H64.75C65.3633 69.375 65.9515 69.1313 66.3852 68.6977C66.8189 68.264 67.0625 67.6758 67.0625 67.0625V34.6875C67.063 34.3836 67.0037 34.0826 66.8878 33.8017C66.772 33.5207 66.6019 33.2654 66.3873 33.0502L60.125 26.7926V11.5625C60.125 10.9492 59.8814 10.361 59.4477 9.9273C59.014 9.49362 58.4258 9.24998 57.8125 9.24998H53.1875C52.5742 9.24998 51.986 9.49362 51.5523 9.9273C51.1186 10.361 50.875 10.9492 50.875 11.5625V17.5426L38.6373 5.30023C38.4224 5.08488 38.1673 4.91402 37.8863 4.79744C37.6054 4.68086 37.3042 4.62085 37 4.62085C36.6958 4.62085 36.3946 4.68086 36.1137 4.79744C35.8328 4.91402 35.5776 5.08488 35.3628 5.30023L7.61275 33.0502C7.39815 33.2654 7.22805 33.5207 7.11218 33.8017C6.99632 34.0826 6.93696 34.3836 6.9375 34.6875V67.0625C6.9375 67.6758 7.18114 68.264 7.61482 68.6977C8.0485 69.1313 8.63669 69.375 9.25 69.375H27.75C28.3633 69.375 28.9515 69.1313 29.3852 68.6977C29.8189 68.264 30.0625 67.6758 30.0625 67.0625Z" fill="white"/>
</svg>
