<svg width="36" height="36" viewBox="0 0 36 36" fill="none" xmlns="http://www.w3.org/2000/svg">
<circle cx="17.79" cy="18.4661" r="16" stroke="white" stroke-width="3"/>
<path d="M18.4648 14.7581V27.9661H16.1943V14.7581H18.4648ZM16.0234 11.2546C16.0234 10.8884 16.1333 10.5792 16.353 10.3269C16.5809 10.0746 16.9146 9.94849 17.354 9.94849C17.7853 9.94849 18.1149 10.0746 18.3428 10.3269C18.5788 10.5792 18.6968 10.8884 18.6968 11.2546C18.6968 11.6046 18.5788 11.9057 18.3428 12.158C18.1149 12.4021 17.7853 12.5242 17.354 12.5242C16.9146 12.5242 16.5809 12.4021 16.353 12.158C16.1333 11.9057 16.0234 11.6046 16.0234 11.2546Z" fill="white"/>
</svg>
