<svg width="150" height="145" viewBox="0 0 150 145" fill="none" xmlns="http://www.w3.org/2000/svg">
<path d="M0 75C1.19247e-06 61.3597 3.7199 47.9777 10.7593 36.2942C17.7988 24.6108 27.8912 15.0682 39.9503 8.69374C52.0095 2.31924 65.5787 -0.645861 79.1976 0.117558C92.8165 0.880976 105.969 5.34401 117.241 13.0263C128.512 20.7086 137.474 31.3193 143.164 43.7163C148.854 56.1133 151.055 69.8272 149.53 83.382C148.006 96.9369 142.814 109.819 134.512 120.643C126.211 131.466 115.116 139.821 102.42 144.808L100.18 139.106C111.839 134.527 122.029 126.854 129.652 116.915C137.275 106.975 142.043 95.1451 143.443 82.6974C144.843 70.2497 142.821 57.6559 137.596 46.2715C132.372 34.887 124.141 25.143 113.79 18.0882C103.44 11.0334 91.3613 6.93489 78.8547 6.23383C66.3482 5.53276 53.8873 8.25568 42.8131 14.1095C31.7389 19.9634 22.4709 28.7265 16.0064 39.4556C9.54194 50.1848 6.12587 62.4738 6.12587 75H0Z" fill="#FF7A7A"/>
</svg>
