<svg width="4" height="27" viewBox="0 0 4 27" fill="none" xmlns="http://www.w3.org/2000/svg">
<path d="M2.10915 15.2524C2.56154 15.2524 2.92826 14.6151 2.92826 13.8289C2.92826 13.0427 2.56154 12.4053 2.10915 12.4053C1.65677 12.4053 1.29004 13.0427 1.29004 13.8289C1.29004 14.6151 1.65677 15.2524 2.10915 15.2524Z" fill="white" stroke="white" stroke-width="2" stroke-linecap="round" stroke-linejoin="round"/>
<path d="M2.10915 4.81315C2.56154 4.81315 2.92826 4.1758 2.92826 3.3896C2.92826 2.60341 2.56154 1.96606 2.10915 1.96606C1.65677 1.96606 1.29004 2.60341 1.29004 3.3896C1.29004 4.1758 1.65677 4.81315 2.10915 4.81315Z" fill="white" stroke="white" stroke-width="2" stroke-linecap="round" stroke-linejoin="round"/>
<path d="M2.10915 25.6917C2.56154 25.6917 2.92826 25.0544 2.92826 24.2682C2.92826 23.482 2.56154 22.8447 2.10915 22.8447C1.65677 22.8447 1.29004 23.482 1.29004 24.2682C1.29004 25.0544 1.65677 25.6917 2.10915 25.6917Z" fill="white" stroke="white" stroke-width="2" stroke-linecap="round" stroke-linejoin="round"/>
</svg>
