<svg width="32" height="35" viewBox="0 0 32 35" fill="none" xmlns="http://www.w3.org/2000/svg">
<g clip-path="url(#clip0_50_323)">
<path d="M1.33337 1.45839L30.6667 33.5417M12 13.1251V17.5001C12.0007 18.3648 12.2357 19.2099 12.6753 19.9287C13.1149 20.6474 13.7393 21.2076 14.4698 21.5384C15.2003 21.8692 16.004 21.9558 16.7794 21.7874C17.5549 21.6189 18.2673 21.2028 18.8267 20.5917M20 13.6209V5.83339C20.001 4.74843 19.6334 3.70177 18.9685 2.89659C18.3037 2.09142 17.389 1.58518 16.402 1.47614C15.4151 1.3671 14.4263 1.66305 13.6277 2.30654C12.829 2.95002 12.2774 3.89513 12.08 4.95839M22.6667 24.7188C21.3651 26.1719 19.6962 27.1665 17.8742 27.5751C16.0522 27.9836 14.1601 27.7874 12.4407 27.0117C10.7213 26.236 9.25305 24.9161 8.22427 23.2213C7.19548 21.5266 6.6531 19.5343 6.66671 17.5001V14.5834M25.3334 14.5834V17.5001C25.3329 18.1015 25.2838 18.7018 25.1867 19.2938M16 27.7084V33.5417M10.6667 33.5417H21.3334" stroke="#B93737" stroke-linecap="round" stroke-linejoin="round"/>
</g>
<defs>
<clipPath id="clip0_50_323">
<rect width="32" height="35" fill="white"/>
</clipPath>
</defs>
</svg>
