<svg width="18" height="30" viewBox="0 0 18 30" fill="none" xmlns="http://www.w3.org/2000/svg">
<path d="M8.25264 1.96606C7.49229 1.96606 6.76308 2.35173 6.22544 3.03821C5.68779 3.72469 5.38574 4.65576 5.38574 5.6266V15.388C5.38574 16.3588 5.68779 17.2899 6.22544 17.9764C6.76308 18.6629 7.49229 19.0485 8.25264 19.0485C9.01298 19.0485 9.74219 18.6629 10.2798 17.9764C10.8175 17.2899 11.1195 16.3588 11.1195 15.388V5.6266C11.1195 4.65576 10.8175 3.72469 10.2798 3.03821C9.74219 2.35173 9.01298 1.96606 8.25264 1.96606Z" fill="white" stroke="white" stroke-width="2" stroke-linecap="round" stroke-linejoin="round"/>
<path d="M16.0341 12.4053V14.9361C16.0341 17.2853 15.2574 19.5382 13.8749 21.1993C12.4923 22.8604 10.6172 23.7937 8.66205 23.7937C6.70687 23.7937 4.83177 22.8604 3.44925 21.1993C2.06673 19.5382 1.29004 17.2853 1.29004 14.9361V12.4053" stroke="white" stroke-width="2" stroke-linecap="round" stroke-linejoin="round"/>
<path d="M8.66211 23.7937V28.5388" stroke="white" stroke-width="2" stroke-linecap="round" stroke-linejoin="round"/>
<path d="M3.74756 28.5388H12.7578" stroke="white" stroke-width="2" stroke-linecap="round" stroke-linejoin="round"/>
</svg>
