<svg width="43" height="48" viewBox="0 0 43 48" fill="none" xmlns="http://www.w3.org/2000/svg">
<path d="M21.9141 47.0863C33.536 47.0863 42.9575 36.6349 42.9575 23.7423C42.9575 10.8498 33.536 0.398315 21.9141 0.398315C10.2922 0.398315 0.870728 10.8498 0.870728 23.7423C0.870728 36.6349 10.2922 47.0863 21.9141 47.0863Z" fill="#FFDD67"/>
<path d="M11.3924 30.7457C15.6538 30.7457 19.1083 26.9134 19.1083 22.1862C19.1083 17.4589 15.6538 13.6267 11.3924 13.6267C7.13104 13.6267 3.67651 17.4589 3.67651 22.1862C3.67651 26.9134 7.13104 30.7457 11.3924 30.7457Z" fill="white"/>
<path d="M32.4358 30.7458C36.6971 30.7458 40.1517 26.9136 40.1517 22.1863C40.1517 17.459 36.6971 13.6268 32.4358 13.6268C28.1744 13.6268 24.7198 17.459 24.7198 22.1863C24.7198 26.9136 28.1744 30.7458 32.4358 30.7458Z" fill="white"/>
<path d="M24.7199 19.8517C23.4573 18.8401 20.3709 18.8401 19.1083 19.8517C18.3367 19.0736 18.477 18.2176 17.7054 17.4395C19.8799 15.6498 23.5976 15.3385 26.1228 17.4395C25.3512 18.2176 25.4915 19.0736 24.7199 19.8517Z" fill="#494949"/>
<path d="M32.4357 12.0703C27.3853 12.0703 23.3169 16.5835 23.3169 22.1861C23.3169 27.7886 27.3853 32.3018 32.4357 32.3018C37.4861 32.3018 41.5545 27.7886 41.5545 22.1861C41.5545 16.5835 37.4861 12.0703 32.4357 12.0703ZM32.4357 29.9674C28.5778 29.9674 25.4213 26.4658 25.4213 22.1861C25.4213 17.9063 28.5778 14.4047 32.4357 14.4047C36.2937 14.4047 39.4502 17.9063 39.4502 22.1861C39.4502 26.4658 36.2937 29.9674 32.4357 29.9674ZM11.3924 12.0703C6.34194 12.0703 2.27356 16.5835 2.27356 22.1861C2.27356 27.7886 6.34194 32.3018 11.3924 32.3018C16.4428 32.3018 20.5111 27.7886 20.5111 22.1861C20.5111 16.5835 16.4428 12.0703 11.3924 12.0703ZM11.3924 29.9674C7.5344 29.9674 4.3779 26.4658 4.3779 22.1861C4.3779 17.9063 7.5344 14.4047 11.3924 14.4047C15.2503 14.4047 18.4068 17.9063 18.4068 22.1861C18.4068 26.4658 15.2503 29.9674 11.3924 29.9674Z" fill="#494949"/>
<path d="M13.4968 26.4657C15.0464 26.4657 16.3026 24.7238 16.3026 22.575C16.3026 20.4262 15.0464 18.6843 13.4968 18.6843C11.9472 18.6843 10.691 20.4262 10.691 22.575C10.691 24.7238 11.9472 26.4657 13.4968 26.4657Z" fill="#664E27"/>
<path d="M30.3314 26.4655C31.881 26.4655 33.1372 24.7236 33.1372 22.5749C33.1372 20.4261 31.881 18.6842 30.3314 18.6842C28.7818 18.6842 27.5256 20.4261 27.5256 22.5749C27.5256 24.7236 28.7818 26.4655 30.3314 26.4655Z" fill="#664E27"/>
<path d="M18.1965 38.7603C22.2649 39.9275 26.6138 39.0715 30.0509 36.4259C30.8927 35.7256 29.2793 33.3134 28.4376 33.9359C26.193 35.7256 22.5455 36.8928 18.8278 35.8034C17.9159 35.5699 17.1443 38.449 18.1965 38.7603Z" fill="#664E27"/>
<path d="M36.7847 11.0585C34.5401 8.95758 31.5239 8.02382 28.5778 8.64632C28.1569 8.72414 27.8062 7.09005 28.2972 6.93443C31.6641 6.23411 35.1714 7.3235 37.7667 9.73571C38.1876 10.1248 37.0653 11.3698 36.7847 11.0585ZM15.2503 8.4907C12.3042 7.946 9.28803 8.80195 7.0434 10.9029C6.76282 11.2142 5.64051 9.96915 6.06138 9.58008C8.65673 7.09006 12.164 6.07848 15.5309 6.7788C16.0219 6.93443 15.6712 8.56851 15.2503 8.4907Z" fill="#917524"/>
</svg>
