<svg width="30" height="30" viewBox="0 0 30 30" fill="none" xmlns="http://www.w3.org/2000/svg">
<path d="M13.125 26.5C13.125 26.5 11.25 26.5 11.25 24.625C11.25 22.75 13.125 17.125 20.625 17.125C28.125 17.125 30 22.75 30 24.625C30 26.5 28.125 26.5 28.125 26.5H13.125ZM20.625 15.25C22.1168 15.25 23.5476 14.6574 24.6025 13.6025C25.6574 12.5476 26.25 11.1168 26.25 9.625C26.25 8.13316 25.6574 6.70242 24.6025 5.64752C23.5476 4.59263 22.1168 4 20.625 4C19.1332 4 17.7024 4.59263 16.6475 5.64752C15.5926 6.70242 15 8.13316 15 9.625C15 11.1168 15.5926 12.5476 16.6475 13.6025C17.7024 14.6574 19.1332 15.25 20.625 15.25ZM9.78 26.5C9.50217 25.9146 9.36355 25.2729 9.375 24.625C9.375 22.0844 10.65 19.4688 13.005 17.65C11.8297 17.2871 10.605 17.1099 9.375 17.125C1.875 17.125 0 22.75 0 24.625C0 26.5 1.875 26.5 1.875 26.5H9.78ZM8.4375 15.25C9.6807 15.25 10.873 14.7561 11.7521 13.8771C12.6311 12.998 13.125 11.8057 13.125 10.5625C13.125 9.3193 12.6311 8.12701 11.7521 7.24794C10.873 6.36886 9.6807 5.875 8.4375 5.875C7.1943 5.875 6.00201 6.36886 5.12294 7.24794C4.24386 8.12701 3.75 9.3193 3.75 10.5625C3.75 11.8057 4.24386 12.998 5.12294 13.8771C6.00201 14.7561 7.1943 15.25 8.4375 15.25Z" fill="#6D7C90"/>
</svg>
