<svg width="90" height="90" viewBox="0 0 90 90" fill="none" xmlns="http://www.w3.org/2000/svg">
<g clip-path="url(#clip0_71_927)">
<path d="M45 84.375C34.5571 84.375 24.5419 80.2266 17.1577 72.8423C9.77343 65.4581 5.625 55.4429 5.625 45C5.625 34.5571 9.77343 24.5419 17.1577 17.1577C24.5419 9.77343 34.5571 5.625 45 5.625C55.4429 5.625 65.4581 9.77343 72.8423 17.1577C80.2266 24.5419 84.375 34.5571 84.375 45C84.375 55.4429 80.2266 65.4581 72.8423 72.8423C65.4581 80.2266 55.4429 84.375 45 84.375ZM45 90C56.9347 90 68.3807 85.2589 76.8198 76.8198C85.2589 68.3807 90 56.9347 90 45C90 33.0653 85.2589 21.6193 76.8198 13.1802C68.3807 4.74106 56.9347 0 45 0C33.0653 0 21.6193 4.74106 13.1802 13.1802C4.74106 21.6193 0 33.0653 0 45C0 56.9347 4.74106 68.3807 13.1802 76.8198C21.6193 85.2589 33.0653 90 45 90Z" fill="#326BB4"/>
<path d="M45 22.5C45.7459 22.5 46.4613 22.7963 46.9887 23.3238C47.5162 23.8512 47.8125 24.5666 47.8125 25.3125V42.1875H64.6875C65.4334 42.1875 66.1488 42.4838 66.6762 43.0113C67.2037 43.5387 67.5 44.2541 67.5 45C67.5 45.7459 67.2037 46.4613 66.6762 46.9887C66.1488 47.5162 65.4334 47.8125 64.6875 47.8125H47.8125V64.6875C47.8125 65.4334 47.5162 66.1488 46.9887 66.6762C46.4613 67.2037 45.7459 67.5 45 67.5C44.2541 67.5 43.5387 67.2037 43.0113 66.6762C42.4838 66.1488 42.1875 65.4334 42.1875 64.6875V47.8125H25.3125C24.5666 47.8125 23.8512 47.5162 23.3238 46.9887C22.7963 46.4613 22.5 45.7459 22.5 45C22.5 44.2541 22.7963 43.5387 23.3238 43.0113C23.8512 42.4838 24.5666 42.1875 25.3125 42.1875H42.1875V25.3125C42.1875 24.5666 42.4838 23.8512 43.0113 23.3238C43.5387 22.7963 44.2541 22.5 45 22.5Z" fill="#326BB4"/>
</g>
<defs>
<clipPath id="clip0_71_927">
<rect width="90" height="90" fill="white"/>
</clipPath>
</defs>
</svg>
