<svg width="43" height="48" viewBox="0 0 43 48" fill="none" xmlns="http://www.w3.org/2000/svg">
<path d="M0.0981445 24.266C0.0981445 37.183 9.49752 47.61 21.1415 47.61C32.7855 47.61 42.1849 37.183 42.1849 24.266C42.1849 11.349 32.7855 0.921997 21.1415 0.921997C9.49752 0.921997 0.0981445 11.349 0.0981445 24.266Z" fill="#FFDD67"/>
<path d="M32.7155 12.0493C32.7155 19.7528 42.185 19.7528 42.185 12.0493C42.185 6.44675 37.4853 0.921997 37.4853 0.921997C37.4853 0.921997 32.7155 6.44675 32.7155 12.0493Z" fill="#65B1EF"/>
<path d="M29.2083 31.2694C31.1453 31.2694 32.7155 29.5275 32.7155 27.3787C32.7155 25.2299 31.1453 23.488 29.2083 23.488C27.2713 23.488 25.701 25.2299 25.701 27.3787C25.701 29.5275 27.2713 31.2694 29.2083 31.2694Z" fill="#664E27"/>
<path d="M13.0749 31.2693C15.0118 31.2693 16.5821 29.5273 16.5821 27.3786C16.5821 25.2298 15.0118 23.4879 13.0749 23.4879C11.1379 23.4879 9.56763 25.2298 9.56763 27.3786C9.56763 29.5273 11.1379 31.2693 13.0749 31.2693Z" fill="#664E27"/>
<path d="M16.6522 16.4067C14.4076 18.5076 11.3914 19.4414 8.44532 18.8189C8.02445 18.7411 7.67373 20.3752 8.16474 20.5308C11.5317 21.2311 15.0389 20.1417 17.6343 17.7295C17.985 17.3404 16.9328 16.0954 16.6522 16.4067ZM33.8377 18.7411C30.8916 19.2858 27.8754 18.4298 25.6307 16.3289C25.3502 16.0176 24.2278 17.2626 24.6487 17.6517C27.2441 20.1417 30.7513 21.1533 34.1182 20.453C34.6092 20.2973 34.2585 18.6633 33.8377 18.7411Z" fill="#917524"/>
<path d="M26.7531 39.8286H15.53C14.4778 39.8286 14.4778 36.7161 15.53 36.7161H26.7531C27.8053 36.7161 27.8053 39.8286 26.7531 39.8286Z" fill="#664E27"/>
</svg>
