<svg width="20" height="20" viewBox="0 0 20 20" fill="none" xmlns="http://www.w3.org/2000/svg">
<path d="M16.75 7.68333C15.2417 7.68333 14.625 6.61666 15.375 5.30833C15.8083 4.55 15.55 3.58333 14.7917 3.15L13.35 2.325C12.6917 1.93333 11.8417 2.16666 11.45 2.825L11.3583 2.98333C10.6083 4.29166 9.375 4.29166 8.61667 2.98333L8.525 2.825C8.15 2.16666 7.3 1.93333 6.64167 2.325L5.2 3.15C4.44167 3.58333 4.18333 4.55833 4.61667 5.31666C5.375 6.61666 4.75833 7.68333 3.25 7.68333C2.38333 7.68333 1.66667 8.39166 1.66667 9.26666V10.7333C1.66667 11.6 2.375 12.3167 3.25 12.3167C4.75833 12.3167 5.375 13.3833 4.61667 14.6917C4.18333 15.45 4.44167 16.4167 5.2 16.85L6.64167 17.675C7.3 18.0667 8.15 17.8333 8.54167 17.175L8.63333 17.0167C9.38333 15.7083 10.6167 15.7083 11.375 17.0167L11.4667 17.175C11.8583 17.8333 12.7083 18.0667 13.3667 17.675L14.8083 16.85C15.5667 16.4167 15.825 15.4417 15.3917 14.6917C14.6333 13.3833 15.25 12.3167 16.7583 12.3167C17.625 12.3167 18.3417 11.6083 18.3417 10.7333V9.26666C18.3333 8.4 17.625 7.68333 16.75 7.68333ZM10 12.7083C8.50833 12.7083 7.29167 11.4917 7.29167 10C7.29167 8.50833 8.50833 7.29167 10 7.29167C11.4917 7.29167 12.7083 8.50833 12.7083 10C12.7083 11.4917 11.4917 12.7083 10 12.7083Z" fill="#6D7C90"/>
</svg>
