<svg width="39" height="39" viewBox="0 0 39 39" fill="none" xmlns="http://www.w3.org/2000/svg">
<path d="M19.1251 24.0682C21.8551 24.0682 24.0682 21.855 24.0682 19.125C24.0682 16.395 21.8551 14.1818 19.1251 14.1818C16.395 14.1818 14.1819 16.395 14.1819 19.125C14.1819 21.855 16.395 24.0682 19.1251 24.0682Z" stroke="white" stroke-width="2" stroke-linecap="round" stroke-linejoin="round"/>
<path d="M31.3182 24.0682C31.0988 24.5652 31.0334 25.1165 31.1303 25.651C31.2273 26.1855 31.4821 26.6787 31.8619 27.067L31.9608 27.1659C32.2672 27.472 32.5103 27.8354 32.6761 28.2355C32.8419 28.6355 32.9273 29.0644 32.9273 29.4974C32.9273 29.9305 32.8419 30.3593 32.6761 30.7594C32.5103 31.1595 32.2672 31.5229 31.9608 31.829C31.6547 32.1354 31.2913 32.3784 30.8912 32.5443C30.4912 32.7101 30.0623 32.7955 29.6293 32.7955C29.1962 32.7955 28.7674 32.7101 28.3673 32.5443C27.9672 32.3784 27.6038 32.1354 27.2977 31.829L27.1989 31.7301C26.8105 31.3503 26.3173 31.0954 25.7828 30.9985C25.2483 30.9016 24.697 30.967 24.2 31.1864C23.7127 31.3952 23.297 31.7421 23.0043 32.1841C22.7115 32.6262 22.5544 33.1442 22.5523 33.6744V33.9545C22.5523 34.8286 22.2051 35.6668 21.5871 36.2848C20.969 36.9028 20.1308 37.25 19.2568 37.25C18.3828 37.25 17.5446 36.9028 16.9266 36.2848C16.3086 35.6668 15.9614 34.8286 15.9614 33.9545V33.8062C15.9486 33.2609 15.7721 32.7319 15.4547 32.2882C15.1373 31.8445 14.6938 31.5065 14.1818 31.3182C13.6848 31.0988 13.1335 31.0334 12.599 31.1303C12.0645 31.2273 11.5713 31.4821 11.183 31.8619L11.0841 31.9608C10.778 32.2672 10.4146 32.5103 10.0145 32.6761C9.61446 32.8419 9.18563 32.9273 8.75256 32.9273C8.31948 32.9273 7.89066 32.8419 7.49059 32.6761C7.09053 32.5103 6.72708 32.2672 6.42102 31.9608C6.11462 31.6547 5.87155 31.2913 5.70571 30.8912C5.53987 30.4912 5.45451 30.0623 5.45451 29.6293C5.45451 29.1962 5.53987 28.7674 5.70571 28.3673C5.87155 27.9672 6.11462 27.6038 6.42102 27.2977L6.51989 27.1989C6.89975 26.8105 7.15457 26.3173 7.25148 25.7828C7.3484 25.2483 7.28297 24.697 7.06364 24.2C6.85477 23.7127 6.50795 23.297 6.06588 23.0043C5.62381 22.7115 5.10578 22.5544 4.57557 22.5523H4.29545C3.42145 22.5523 2.58323 22.2051 1.96522 21.5871C1.3472 20.969 1 20.1308 1 19.2568C1 18.3828 1.3472 17.5446 1.96522 16.9266C2.58323 16.3086 3.42145 15.9614 4.29545 15.9614H4.44375C4.98914 15.9486 5.51808 15.7721 5.9618 15.4547C6.40552 15.1373 6.74351 14.6938 6.93182 14.1818C7.15116 13.6848 7.21658 13.1335 7.11967 12.599C7.02275 12.0645 6.76793 11.5713 6.38807 11.183L6.2892 11.0841C5.9828 10.778 5.73974 10.4146 5.57389 10.0145C5.40805 9.61446 5.32269 9.18563 5.32269 8.75256C5.32269 8.31948 5.40805 7.89066 5.57389 7.49059C5.73974 7.09053 5.9828 6.72708 6.2892 6.42102C6.59526 6.11462 6.95871 5.87155 7.35878 5.70571C7.75884 5.53987 8.18766 5.45451 8.62074 5.45451C9.05381 5.45451 9.48264 5.53987 9.8827 5.70571C10.2828 5.87155 10.6462 6.11462 10.9523 6.42102L11.0511 6.51989C11.4395 6.89975 11.9327 7.15457 12.4672 7.25148C13.0017 7.3484 13.553 7.28297 14.05 7.06364H14.1818C14.6692 6.85477 15.0848 6.50795 15.3776 6.06588C15.6703 5.62381 15.8274 5.10578 15.8295 4.57557V4.29545C15.8295 3.42145 16.1767 2.58323 16.7948 1.96522C17.4128 1.3472 18.251 1 19.125 1C19.999 1 20.8372 1.3472 21.4552 1.96522C22.0733 2.58323 22.4205 3.42145 22.4205 4.29545V4.44375C22.4226 4.97397 22.5797 5.49199 22.8724 5.93406C23.1652 6.37613 23.5808 6.72295 24.0682 6.93182C24.5652 7.15116 25.1165 7.21658 25.651 7.11967C26.1855 7.02275 26.6787 6.76793 27.067 6.38807L27.1659 6.2892C27.472 5.9828 27.8354 5.73974 28.2355 5.57389C28.6355 5.40805 29.0644 5.32269 29.4974 5.32269C29.9305 5.32269 30.3593 5.40805 30.7594 5.57389C31.1595 5.73974 31.5229 5.9828 31.829 6.2892C32.1354 6.59526 32.3784 6.95871 32.5443 7.35878C32.7101 7.75884 32.7955 8.18766 32.7955 8.62074C32.7955 9.05381 32.7101 9.48264 32.5443 9.8827C32.3784 10.2828 32.1354 10.6462 31.829 10.9523L31.7301 11.0511C31.3503 11.4395 31.0954 11.9327 30.9985 12.4672C30.9016 13.0017 30.967 13.553 31.1864 14.05V14.1818C31.3952 14.6692 31.7421 15.0848 32.1841 15.3776C32.6262 15.6703 33.1442 15.8274 33.6744 15.8295H33.9545C34.8286 15.8295 35.6668 16.1767 36.2848 16.7948C36.9028 17.4128 37.25 18.251 37.25 19.125C37.25 19.999 36.9028 20.8372 36.2848 21.4552C35.6668 22.0733 34.8286 22.4205 33.9545 22.4205H33.8062C33.276 22.4226 32.758 22.5797 32.3159 22.8724C31.8739 23.1652 31.5271 23.5808 31.3182 24.0682V24.0682Z" stroke="white" stroke-width="2" stroke-linecap="round" stroke-linejoin="round"/>
</svg>
