<svg width="30" height="30" viewBox="0 0 30 30" fill="none" xmlns="http://www.w3.org/2000/svg">
<path d="M11.5625 27.5L11.0625 23.5C10.7917 23.3958 10.5365 23.2708 10.2969 23.125C10.0573 22.9792 9.82292 22.8229 9.59375 22.6562L5.875 24.2188L2.4375 18.2812L5.65625 15.8438C5.63542 15.6979 5.625 15.5573 5.625 15.4219V14.5781C5.625 14.4427 5.63542 14.3021 5.65625 14.1562L2.4375 11.7188L5.875 5.78125L9.59375 7.34375C9.82292 7.17708 10.0625 7.02083 10.3125 6.875C10.5625 6.72917 10.8125 6.60417 11.0625 6.5L11.5625 2.5H18.4375L18.9375 6.5C19.2083 6.60417 19.4635 6.72917 19.7031 6.875C19.9427 7.02083 20.1771 7.17708 20.4062 7.34375L24.125 5.78125L27.5625 11.7188L24.3437 14.1562C24.3646 14.3021 24.375 14.4427 24.375 14.5781V15.4219C24.375 15.5573 24.3542 15.6979 24.3125 15.8438L27.5313 18.2812L24.0938 24.2188L20.4062 22.6562C20.1771 22.8229 19.9375 22.9792 19.6875 23.125C19.4375 23.2708 19.1875 23.3958 18.9375 23.5L18.4375 27.5H11.5625ZM15.0625 19.375C16.2708 19.375 17.3021 18.9479 18.1562 18.0938C19.0104 17.2396 19.4375 16.2083 19.4375 15C19.4375 13.7917 19.0104 12.7604 18.1562 11.9063C17.3021 11.0521 16.2708 10.625 15.0625 10.625C13.8333 10.625 12.7969 11.0521 11.9531 11.9063C11.1094 12.7604 10.6875 13.7917 10.6875 15C10.6875 16.2083 11.1094 17.2396 11.9531 18.0938C12.7969 18.9479 13.8333 19.375 15.0625 19.375Z" fill="#6D7C90"/>
</svg>
