<svg width="32" height="32" viewBox="0 0 32 32" fill="none" xmlns="http://www.w3.org/2000/svg">
<path d="M22.587 30.4368V27.2734C22.587 25.5954 22.026 23.9861 21.0275 22.7996C20.029 21.6131 18.6748 20.9465 17.2627 20.9465H6.61427C5.2022 20.9465 3.84796 21.6131 2.84947 22.7996C1.85098 23.9861 1.29004 25.5954 1.29004 27.2734V30.4368" stroke="#86FB9C" stroke-width="2" stroke-linecap="round" stroke-linejoin="round"/>
<path d="M12.3482 14.3034C15.2887 14.3034 17.6724 11.5416 17.6724 8.13474C17.6724 4.72787 15.2887 1.96606 12.3482 1.96606C9.40767 1.96606 7.02393 4.72787 7.02393 8.13474C7.02393 11.5416 9.40767 14.3034 12.3482 14.3034Z" stroke="#86FB9C" stroke-width="2" stroke-linecap="round" stroke-linejoin="round"/>
<path d="M30.7779 30.4368V27.2033C30.7772 25.7704 30.455 24.3785 29.862 23.246C29.269 22.1136 28.4387 21.3048 27.5015 20.9465" stroke="#86FB9C" stroke-width="2" stroke-linecap="round" stroke-linejoin="round"/>
<path d="M20.9487 1.96606C22.1203 2.31677 23.1587 3.11336 23.9002 4.23026C24.6418 5.34717 25.0443 6.72085 25.0443 8.13474C25.0443 9.54863 24.6418 10.9223 23.9002 12.0392C23.1587 13.1561 22.1203 13.9527 20.9487 14.3034" stroke="#86FB9C" stroke-width="2" stroke-linecap="round" stroke-linejoin="round"/>
</svg>
