<svg width="43" height="48" viewBox="0 0 43 48" fill="none" xmlns="http://www.w3.org/2000/svg">
<path d="M21.5754 47.5627C33.1973 47.5627 42.6187 37.1112 42.6187 24.2186C42.6187 11.3261 33.1973 0.874634 21.5754 0.874634C9.95342 0.874634 0.531982 11.3261 0.531982 24.2186C0.531982 37.1112 9.95342 47.5627 21.5754 47.5627Z" fill="#FFDD67"/>
<path d="M12.4566 30.4436C16.718 30.4436 20.1725 26.6114 20.1725 21.8842C20.1725 17.1569 16.718 13.3247 12.4566 13.3247C8.19525 13.3247 4.74072 17.1569 4.74072 21.8842C4.74072 26.6114 8.19525 30.4436 12.4566 30.4436Z" fill="white"/>
<path d="M15.9638 21.8843C15.9638 24.0631 14.4206 25.775 12.4566 25.775C10.4925 25.775 8.94934 24.0631 8.94934 21.8843C8.94934 19.7055 10.4925 17.9937 12.4566 17.9937C14.4206 17.9937 15.9638 19.7055 15.9638 21.8843Z" fill="#664E27"/>
<path d="M38.4101 21.8842C38.4101 26.6308 34.973 30.4436 30.6942 30.4436C26.4154 30.4436 22.9783 26.6308 22.9783 21.8842C22.9783 17.1376 26.4154 13.3247 30.6942 13.3247C34.973 13.3247 38.4101 17.1376 38.4101 21.8842Z" fill="white"/>
<path d="M34.2015 21.8843C34.2015 24.0631 32.6583 25.775 30.6942 25.775C28.7302 25.775 27.187 24.0631 27.187 21.8843C27.187 19.7055 28.7302 17.9937 30.6942 17.9937C32.6583 17.9937 34.2015 19.7055 34.2015 21.8843Z" fill="#664E27"/>
<path d="M34.3417 11.6127C32.097 9.51178 29.0808 8.57801 26.1347 9.20052C25.7139 9.27833 25.3631 7.64425 25.8542 7.48863C29.2211 6.78831 32.7283 7.87769 35.3237 10.2899C35.7445 10.679 34.6222 11.924 34.3417 11.6127ZM17.0159 9.04489C14.0699 8.5002 11.0537 9.35615 8.80903 11.4571C8.52845 11.7684 7.40613 10.5233 7.827 10.1343C10.4224 7.64425 13.9296 6.63268 17.2965 7.333C17.7875 7.48863 17.4368 9.12271 17.0159 9.04489Z" fill="#917524"/>
<path d="M21.5753 44.4501C25.0619 44.4501 27.8884 41.3147 27.8884 37.4469C27.8884 33.5792 25.0619 30.4437 21.5753 30.4437C18.0888 30.4437 15.2623 33.5792 15.2623 37.4469C15.2623 41.3147 18.0888 44.4501 21.5753 44.4501Z" fill="#664E27"/>
<path d="M17.3667 35.1125C18.2084 33.245 19.7516 32 21.5754 32C23.3991 32 24.9423 33.245 25.784 35.1125H17.3667Z" fill="white"/>
</svg>
