<svg width="16" height="15" viewBox="0 0 16 15" fill="none" xmlns="http://www.w3.org/2000/svg">
<g clip-path="url(#clip0_44_312)">
<path d="M10.5396 9.59487V10.1946C10.5396 10.5126 10.4008 10.8177 10.1538 11.0426C9.9067 11.2676 9.57159 11.3939 9.22218 11.3939H1.97615C1.62674 11.3939 1.29164 11.2676 1.04457 11.0426C0.797495 10.8177 0.658691 10.5126 0.658691 10.1946V4.19775C0.658691 3.87966 0.797495 3.5746 1.04457 3.34968C1.29164 3.12475 1.62674 2.99839 1.97615 2.99839H3.29361M7.02202 2.99839H9.22218C9.57159 2.99839 9.9067 3.12475 10.1538 3.34968C10.4008 3.5746 10.5396 3.87966 10.5396 4.19775V6.20068L11.1984 6.80036L15.1508 4.19775V10.1946M0.658691 0.59967L15.1508 13.7926" stroke="#B3261E" stroke-linecap="round" stroke-linejoin="round"/>
</g>
<defs>
<clipPath id="clip0_44_312">
<rect width="15.8095" height="14.3923" fill="white"/>
</clipPath>
</defs>
</svg>
