<svg width="40" height="42" viewBox="0 0 40 42" fill="none" xmlns="http://www.w3.org/2000/svg">
<path d="M26.6666 28V29.75C26.6666 30.6783 26.3154 31.5685 25.6903 32.2249C25.0652 32.8813 24.2173 33.25 23.3333 33.25H4.99996C4.1159 33.25 3.26806 32.8813 2.64294 32.2249C2.01782 31.5685 1.66663 30.6783 1.66663 29.75V12.25C1.66663 11.3217 2.01782 10.4315 2.64294 9.77513C3.26806 9.11875 4.1159 8.75 4.99996 8.75H8.33329M17.7666 8.75H23.3333C24.2173 8.75 25.0652 9.11875 25.6903 9.77513C26.3154 10.4315 26.6666 11.3217 26.6666 12.25V18.095L28.3333 19.845L38.3333 12.25V29.75M1.66663 1.75L38.3333 40.25" stroke="#B3261E" stroke-linecap="round" stroke-linejoin="round"/>
</svg>
